<svg
  xmlns="http://www.w3.org/2000/svg"
  xmlns:xlink="http://www.w3.org/1999/xlink"
  version="1.1"
  x="0px"
  y="0px"
  viewBox="0 0 32 32"
  style="enable-background:new 0 0 32 32;"
  xml:space="preserve"
  fill="#FFFFFF"
>
  <g>
    <path d="M16,0C7.163,0,0,7.163,0,16s7.163,16,16,16s16-7.163,16-16S24.837,0,16,0z M18.001,25.563V28c0,0.553-0.446,1-1,1h-1   c-0.553,0-1-0.447-1-1v-2.215c-2-0.086-3.905-0.56-5.134-1.16c-0.22-0.107-0.4-0.354-0.34-0.591l0.657-2.683   c0.038-0.148,0.125-0.272,0.265-0.339c0.14-0.065,0.294-0.063,0.433,0.002c1.268,0.605,2.898,1.103,4.679,1.103   c1.8,0,3.03-0.695,3.03-1.957c0-1.201-1.011-1.962-3.351-2.752c-3.38-1.137-5.636-2.716-5.636-5.781C9.604,8.845,12,6.666,15,6.004   V4c0-0.553,0.447-1,1-1h1c0.553,0,1,0.447,1,1v1.781c2,0.082,3.174,0.431,4.172,0.857c0.234,0.101,0.357,0.355,0.295,0.603   l-0.658,2.567c-0.039,0.146-0.138,0.269-0.271,0.334c-0.135,0.066-0.292,0.072-0.43,0.015c-0.866-0.364-2.17-0.838-4.006-0.838   c-2.054,0-2.718,0.885-2.718,1.77c0,1.042,1.106,1.707,3.796,2.717c3.758,1.329,5.36,3.066,5.36,5.912   C23.542,22.529,21.001,24.931,18.001,25.563z" />
  </g>
</svg>
